<mxfile host="www.draw.io" modified="2020-04-05T20:40:21.757Z" agent="Mozilla/5.0 (Macintosh; Intel Mac OS X 10_14_6) AppleWebKit/537.36 (KHTML, like Gecko) Chrome/80.0.3987.149 Safari/537.36" etag="xxdf3e-EfMBP4o-2v3ge" version="12.9.2" type="github">
  <diagram id="HVDZRY3gkyyup217Syen" name="Page-1">
    <mxGraphModel dx="815" dy="477" grid="1" gridSize="10" guides="1" tooltips="1" connect="1" arrows="1" fold="1" page="1" pageScale="1" pageWidth="827" pageHeight="1169" math="0" shadow="0">
      <root>
        <mxCell id="0" />
        <mxCell id="1" parent="0" />
        <mxCell id="jdDZoiehEomall8d7747-11" value="" style="rounded=1;arcSize=10;dashed=1;strokeColor=#000000;fillColor=none;gradientColor=none;dashPattern=8 3 1 3;strokeWidth=2;" vertex="1" parent="1">
          <mxGeometry x="90" y="270" width="230" height="150" as="geometry" />
        </mxCell>
        <mxCell id="jdDZoiehEomall8d7747-9" value="" style="rounded=1;arcSize=10;dashed=1;strokeColor=#000000;fillColor=none;gradientColor=none;dashPattern=8 3 1 3;strokeWidth=2;" vertex="1" parent="1">
          <mxGeometry x="90" y="35" width="230" height="215" as="geometry" />
        </mxCell>
        <mxCell id="jdDZoiehEomall8d7747-13" style="edgeStyle=orthogonalEdgeStyle;orthogonalLoop=1;jettySize=auto;html=1;entryX=1;entryY=0;entryDx=0;entryDy=0;curved=1;" edge="1" parent="1" source="jdDZoiehEomall8d7747-1" target="jdDZoiehEomall8d7747-2">
          <mxGeometry relative="1" as="geometry" />
        </mxCell>
        <mxCell id="jdDZoiehEomall8d7747-15" style="edgeStyle=orthogonalEdgeStyle;curved=1;orthogonalLoop=1;jettySize=auto;html=1;entryX=0;entryY=0;entryDx=0;entryDy=0;" edge="1" parent="1" source="jdDZoiehEomall8d7747-1" target="jdDZoiehEomall8d7747-3">
          <mxGeometry relative="1" as="geometry" />
        </mxCell>
        <mxCell id="jdDZoiehEomall8d7747-1" value="&lt;font style=&quot;font-size: 16px&quot;&gt;root&lt;/font&gt;" style="ellipse;whiteSpace=wrap;html=1;aspect=fixed;" vertex="1" parent="1">
          <mxGeometry x="200" y="40" width="50" height="50" as="geometry" />
        </mxCell>
        <mxCell id="jdDZoiehEomall8d7747-14" style="edgeStyle=orthogonalEdgeStyle;curved=1;orthogonalLoop=1;jettySize=auto;html=1;entryX=0.5;entryY=0;entryDx=0;entryDy=0;" edge="1" parent="1" source="jdDZoiehEomall8d7747-2" target="jdDZoiehEomall8d7747-4">
          <mxGeometry relative="1" as="geometry" />
        </mxCell>
        <mxCell id="jdDZoiehEomall8d7747-16" style="edgeStyle=orthogonalEdgeStyle;curved=1;orthogonalLoop=1;jettySize=auto;html=1;" edge="1" parent="1" source="jdDZoiehEomall8d7747-2" target="jdDZoiehEomall8d7747-5">
          <mxGeometry relative="1" as="geometry" />
        </mxCell>
        <mxCell id="jdDZoiehEomall8d7747-2" value="&lt;font style=&quot;font-size: 16px&quot;&gt;dir1&lt;/font&gt;" style="ellipse;whiteSpace=wrap;html=1;aspect=fixed;" vertex="1" parent="1">
          <mxGeometry x="150" y="110" width="50" height="50" as="geometry" />
        </mxCell>
        <mxCell id="jdDZoiehEomall8d7747-3" value="&lt;font style=&quot;font-size: 16px&quot;&gt;file1&lt;/font&gt;" style="ellipse;whiteSpace=wrap;html=1;aspect=fixed;" vertex="1" parent="1">
          <mxGeometry x="250" y="110" width="50" height="50" as="geometry" />
        </mxCell>
        <mxCell id="jdDZoiehEomall8d7747-4" value="&lt;font style=&quot;font-size: 16px&quot;&gt;file2&lt;/font&gt;" style="ellipse;whiteSpace=wrap;html=1;aspect=fixed;" vertex="1" parent="1">
          <mxGeometry x="110" y="190" width="50" height="50" as="geometry" />
        </mxCell>
        <mxCell id="jdDZoiehEomall8d7747-17" style="edgeStyle=orthogonalEdgeStyle;curved=1;orthogonalLoop=1;jettySize=auto;html=1;entryX=0.5;entryY=0;entryDx=0;entryDy=0;" edge="1" parent="1" source="jdDZoiehEomall8d7747-5" target="jdDZoiehEomall8d7747-6">
          <mxGeometry relative="1" as="geometry" />
        </mxCell>
        <mxCell id="jdDZoiehEomall8d7747-5" value="&lt;font style=&quot;font-size: 16px&quot;&gt;dir2&lt;/font&gt;" style="ellipse;whiteSpace=wrap;html=1;aspect=fixed;" vertex="1" parent="1">
          <mxGeometry x="200" y="280" width="50" height="50" as="geometry" />
        </mxCell>
        <mxCell id="jdDZoiehEomall8d7747-6" value="&lt;font style=&quot;font-size: 16px&quot;&gt;file3&lt;/font&gt;" style="ellipse;whiteSpace=wrap;html=1;aspect=fixed;" vertex="1" parent="1">
          <mxGeometry x="240" y="350" width="50" height="50" as="geometry" />
        </mxCell>
        <mxCell id="jdDZoiehEomall8d7747-10" value="&lt;font style=&quot;font-size: 18px&quot;&gt;Partition 1&lt;/font&gt;" style="text;html=1;strokeColor=none;fillColor=none;align=center;verticalAlign=middle;whiteSpace=wrap;rounded=0;" vertex="1" parent="1">
          <mxGeometry x="100" y="55" width="90" height="20" as="geometry" />
        </mxCell>
        <mxCell id="jdDZoiehEomall8d7747-12" value="&lt;font style=&quot;font-size: 18px&quot;&gt;Partition 2&lt;/font&gt;" style="text;html=1;strokeColor=none;fillColor=none;align=center;verticalAlign=middle;whiteSpace=wrap;rounded=0;" vertex="1" parent="1">
          <mxGeometry x="100" y="365" width="90" height="20" as="geometry" />
        </mxCell>
      </root>
    </mxGraphModel>
  </diagram>
</mxfile>
